<svg id="Capa_1" enable-background="new 0 0 512 512" height="512" viewBox="0 0 512 512" width="512" xmlns="http://www.w3.org/2000/svg" xmlns:xlink="http://www.w3.org/1999/xlink"><linearGradient id="SVGID_1_" gradientUnits="userSpaceOnUse" x1="256" x2="256" y1="512" y2="0"><stop offset="0" stop-color="#a93aff"/><stop offset="1" stop-color="#ff81ff"/></linearGradient><g><g><g><path d="m255.999 0c-140.61 0-255.998 115.39-255.998 256 0 125.233 91.813 234.655 210.998 256v-251.781l-41.367 10.327c-6.138 1.582-12.612-.938-16.128-6.255-3.516-5.288-3.311-12.217.498-17.285l90-120c5.654-7.559 18.34-7.559 23.994 0l90 120c3.809 5.068 4.014 11.997.498 17.285-3.516 5.317-9.976 7.837-16.128 6.255l-42.365-10.327v251.781c119.185-21.345 211.998-130.767 211.998-256 0-140.61-115.39-256-256-256z" fill="url(#SVGID_1_)"/></g></g></g></svg>